<svg width="32" height="32" viewBox="0 0 32 32" fill="none" xmlns="http://www.w3.org/2000/svg">
  <rect width="32" height="32" rx="8" fill="#1d4f8a"/>
  <path d="M8 12C8 10.8954 8.89543 10 10 10H14C15.1046 10 16 10.8954 16 12V20C16 21.1046 15.1046 22 14 22H10C8.89543 22 8 21.1046 8 20V12Z" fill="white"/>
  <path d="M18 10H22C23.1046 10 24 10.8954 24 12V14C24 15.1046 23.1046 16 22 16H18V10Z" fill="white"/>
  <path d="M18 18H22C23.1046 18 24 18.8954 24 20V20C24 21.1046 23.1046 22 22 22H18V18Z" fill="white"/>
  <circle cx="12" cy="14" r="1.5" fill="#1d4f8a"/>
</svg>
